REM DIRINDEX 1\2,1\3,1\4,1\5
REM DIRNAME folder01,folder02,folder03,folder04,folder05
TITLE ""
FILE "097.mp3" MP3
  TRACK 01 AUDIO
    TITLE "0:"
    INDEX 01 00:00:00
  TRACK 02 AUDIO
    TITLE "2:cjc046_2084"
    INDEX 01 00:00:15
  TRACK 03 AUDIO
    TITLE "0:"
    INDEX 01 00:01:17
  TRACK 04 AUDIO
    TITLE "3:cjc046_2085"
    INDEX 01 00:01:46
  TRACK 05 AUDIO
    TITLE "0:"
    INDEX 01 00:02:49
  TRACK 06 AUDIO
    TITLE "4:cjc046_2086"
    INDEX 01 00:02:65
  TRACK 07 AUDIO
    TITLE "0:"
    INDEX 01 00:03:68
  TRACK 08 AUDIO
    TITLE "2:cjc046_2087"
    INDEX 01 00:05:05
  TRACK 09 AUDIO
    TITLE "0:"
    INDEX 01 00:06:06
  TRACK 10 AUDIO
    TITLE "3:cjc046_2088"
    INDEX 01 00:06:30
  TRACK 11 AUDIO
    TITLE "0:"
    INDEX 01 00:07:19
  TRACK 12 AUDIO
    TITLE "4:cjc046_2089"
    INDEX 01 00:07:33
  TRACK 13 AUDIO
    TITLE "0:"
    INDEX 01 00:08:32
  TRACK 14 AUDIO
    TITLE "2:cjc046_2090"
    INDEX 01 00:09:40
  TRACK 15 AUDIO
    TITLE "0:"
    INDEX 01 00:10:45
  TRACK 16 AUDIO
    TITLE "3:cjc046_2091"
    INDEX 01 00:10:72
  TRACK 17 AUDIO
    TITLE "0:"
    INDEX 01 00:12:46
  TRACK 18 AUDIO
    TITLE "4:cjc046_2092"
    INDEX 01 00:12:58
  TRACK 19 AUDIO
    TITLE "0:"
    INDEX 01 00:13:63
  TRACK 20 AUDIO
    TITLE "2:cjc046_2093"
    INDEX 01 00:14:72
  TRACK 21 AUDIO
    TITLE "0:"
    INDEX 01 00:16:00
  TRACK 22 AUDIO
    TITLE "3:cjc046_2094"
    INDEX 01 00:16:24
  TRACK 23 AUDIO
    TITLE "0:"
    INDEX 01 00:17:16
  TRACK 24 AUDIO
    TITLE "4:cjc046_2095"
    INDEX 01 00:17:31
  TRACK 25 AUDIO
    TITLE "0:"
    INDEX 01 00:18:33
  TRACK 26 AUDIO
    TITLE "2:cjc046_2096"
    INDEX 01 00:19:40
  TRACK 27 AUDIO
    TITLE "0:"
    INDEX 01 00:20:47
  TRACK 28 AUDIO
    TITLE "3:cjc046_2097"
    INDEX 01 00:20:73
  TRACK 29 AUDIO
    TITLE "0:"
    INDEX 01 00:22:01
  TRACK 30 AUDIO
    TITLE "4:cjc046_2098"
    INDEX 01 00:22:15
  TRACK 31 AUDIO
    TITLE "0:"
    INDEX 01 00:23:22
  TRACK 32 AUDIO
    TITLE "2:cjc046_2099"
    INDEX 01 00:24:31
  TRACK 33 AUDIO
    TITLE "0:"
    INDEX 01 00:25:35
  TRACK 34 AUDIO
    TITLE "3:cjc046_2100"
    INDEX 01 00:25:60
  TRACK 35 AUDIO
    TITLE "0:"
    INDEX 01 00:26:62
  TRACK 36 AUDIO
    TITLE "4:cjc046_2101"
    INDEX 01 00:27:02
  TRACK 37 AUDIO
    TITLE "0:"
    INDEX 01 00:28:06
  TRACK 38 AUDIO
    TITLE "2:cjc046_2102"
    INDEX 01 00:29:11
  TRACK 39 AUDIO
    TITLE "0:"
    INDEX 01 00:30:30
  TRACK 40 AUDIO
    TITLE "3:cjc046_2103"
    INDEX 01 00:30:57
  TRACK 41 AUDIO
    TITLE "0:"
    INDEX 01 00:32:64
  TRACK 42 AUDIO
    TITLE "4:cjc046_2104"
    INDEX 01 00:32:74
  TRACK 43 AUDIO
    TITLE "0:"
    INDEX 01 00:34:16
  TRACK 44 AUDIO
    TITLE "2:cjc046_2105"
    INDEX 01 00:35:27
  TRACK 45 AUDIO
    TITLE "0:"
    INDEX 01 00:36:29
  TRACK 46 AUDIO
    TITLE "3:cjc046_2106"
    INDEX 01 00:36:54
  TRACK 47 AUDIO
    TITLE "0:"
    INDEX 01 00:37:67
  TRACK 48 AUDIO
    TITLE "4:cjc046_2107"
    INDEX 01 00:38:04
  TRACK 49 AUDIO
    TITLE "0:"
    INDEX 01 00:39:07
  TRACK 50 AUDIO
    TITLE "2:cjc046_2108"
    INDEX 01 00:40:17
  TRACK 51 AUDIO
    TITLE "0:"
    INDEX 01 00:41:32
  TRACK 52 AUDIO
    TITLE "3:cjc046_2109"
    INDEX 01 00:41:57
  TRACK 53 AUDIO
    TITLE "0:"
    INDEX 01 00:43:31
  TRACK 54 AUDIO
    TITLE "4:cjc046_2110"
    INDEX 01 00:43:39
  TRACK 55 AUDIO
    TITLE "0:"
    INDEX 01 00:44:56
  TRACK 56 AUDIO
    TITLE "2:cjc046_2111"
    INDEX 01 00:45:63
  TRACK 57 AUDIO
    TITLE "0:"
    INDEX 01 00:46:62
  TRACK 58 AUDIO
    TITLE "3:cjc046_2112"
    INDEX 01 00:47:09
  TRACK 59 AUDIO
    TITLE "0:"
    INDEX 01 00:48:00
  TRACK 60 AUDIO
    TITLE "4:cjc046_2113"
    INDEX 01 00:48:12
  TRACK 61 AUDIO
    TITLE "0:"
    INDEX 01 00:49:12
